<mxfile host="app.diagrams.net" agent="Mozilla/5.0 (Macintosh; Intel Mac OS X 10_15_7) AppleWebKit/537.36 (KHTML, like Gecko) Chrome/129.0.0.0 Safari/537.36" version="24.7.17">
  <diagram name="Page-1" id="MbBG8igs4qRcJqlFW7jt">
    <mxGraphModel dx="1969" dy="1224" grid="1" gridSize="10" guides="1" tooltips="1" connect="1" arrows="1" fold="1" page="1" pageScale="1" pageWidth="1169" pageHeight="827" math="0" shadow="0">
      <root>
        <mxCell id="0" />
        <mxCell id="1" parent="0" />
        <mxCell id="2LGI7dXvFMPGlqY811fJ-1" value="Light client&lt;div&gt;Ethereum&lt;/div&gt;" style="shape=cylinder3;whiteSpace=wrap;html=1;boundedLbl=1;backgroundOutline=1;size=15;gradientColor=#B3B3B3;strokeColor=#B3B3B3;" vertex="1" parent="1">
          <mxGeometry x="40" y="190" width="60" height="80" as="geometry" />
        </mxCell>
        <mxCell id="2LGI7dXvFMPGlqY811fJ-2" value="Light client&lt;div&gt;Allfeat&lt;/div&gt;" style="shape=cylinder3;whiteSpace=wrap;html=1;boundedLbl=1;backgroundOutline=1;size=15;gradientColor=#B3B3B3;strokeColor=#B3B3B3;" vertex="1" parent="1">
          <mxGeometry x="40" y="50" width="60" height="80" as="geometry" />
        </mxCell>
        <mxCell id="2LGI7dXvFMPGlqY811fJ-5" style="rounded=0;orthogonalLoop=1;jettySize=auto;html=1;" edge="1" parent="1" source="2LGI7dXvFMPGlqY811fJ-3" target="2LGI7dXvFMPGlqY811fJ-1">
          <mxGeometry relative="1" as="geometry" />
        </mxCell>
        <mxCell id="2LGI7dXvFMPGlqY811fJ-6" style="rounded=0;orthogonalLoop=1;jettySize=auto;html=1;" edge="1" parent="1" source="2LGI7dXvFMPGlqY811fJ-3" target="2LGI7dXvFMPGlqY811fJ-2">
          <mxGeometry relative="1" as="geometry" />
        </mxCell>
        <mxCell id="2LGI7dXvFMPGlqY811fJ-11" value="" style="edgeStyle=orthogonalEdgeStyle;rounded=0;orthogonalLoop=1;jettySize=auto;html=1;entryX=0;entryY=0.5;entryDx=0;entryDy=0;" edge="1" parent="1" source="2LGI7dXvFMPGlqY811fJ-3" target="2LGI7dXvFMPGlqY811fJ-10">
          <mxGeometry relative="1" as="geometry" />
        </mxCell>
        <mxCell id="2LGI7dXvFMPGlqY811fJ-12" value="New&lt;div&gt;event&lt;/div&gt;" style="edgeLabel;html=1;align=center;verticalAlign=middle;resizable=0;points=[];" vertex="1" connectable="0" parent="2LGI7dXvFMPGlqY811fJ-11">
          <mxGeometry x="-0.15" y="3" relative="1" as="geometry">
            <mxPoint x="-2" y="20" as="offset" />
          </mxGeometry>
        </mxCell>
        <mxCell id="2LGI7dXvFMPGlqY811fJ-16" style="edgeStyle=orthogonalEdgeStyle;rounded=0;orthogonalLoop=1;jettySize=auto;html=1;entryX=0;entryY=0.5;entryDx=0;entryDy=0;" edge="1" parent="1" source="2LGI7dXvFMPGlqY811fJ-3" target="2LGI7dXvFMPGlqY811fJ-15">
          <mxGeometry relative="1" as="geometry" />
        </mxCell>
        <mxCell id="2LGI7dXvFMPGlqY811fJ-3" value="Listen to new events" style="rounded=1;whiteSpace=wrap;html=1;shadow=1;gradientColor=#B3B3B3;strokeColor=#B3B3B3;" vertex="1" parent="1">
          <mxGeometry x="210" y="130" width="120" height="60" as="geometry" />
        </mxCell>
        <mxCell id="2LGI7dXvFMPGlqY811fJ-4" value="&lt;font style=&quot;font-size: 16px;&quot;&gt;Bridge Node&lt;/font&gt;" style="text;html=1;align=center;verticalAlign=middle;whiteSpace=wrap;rounded=0;strokeColor=#B3B3B3;fontSize=16;" vertex="1" parent="1">
          <mxGeometry x="1029" width="140" height="30" as="geometry" />
        </mxCell>
        <mxCell id="2LGI7dXvFMPGlqY811fJ-7" value="Read every ~ 1s" style="text;html=1;align=center;verticalAlign=middle;whiteSpace=wrap;rounded=0;" vertex="1" parent="1">
          <mxGeometry x="90" y="140" width="100" height="30" as="geometry" />
        </mxCell>
        <mxCell id="2LGI7dXvFMPGlqY811fJ-10" value="Store event to&lt;div&gt;local repository&lt;/div&gt;" style="rounded=1;whiteSpace=wrap;html=1;shadow=1;gradientColor=#B3B3B3;strokeColor=#B3B3B3;" vertex="1" parent="1">
          <mxGeometry x="400" y="70" width="120" height="60" as="geometry" />
        </mxCell>
        <mxCell id="2LGI7dXvFMPGlqY811fJ-15" value="Send event to message queueing" style="rounded=1;whiteSpace=wrap;html=1;shadow=1;gradientColor=#B3B3B3;strokeColor=#B3B3B3;" vertex="1" parent="1">
          <mxGeometry x="400" y="190" width="120" height="60" as="geometry" />
        </mxCell>
        <mxCell id="2LGI7dXvFMPGlqY811fJ-17" value="Event listener" style="text;html=1;align=center;verticalAlign=middle;whiteSpace=wrap;rounded=0;" vertex="1" parent="1">
          <mxGeometry x="180" y="10" width="160" height="30" as="geometry" />
        </mxCell>
      </root>
    </mxGraphModel>
  </diagram>
</mxfile>
